<mxfile host="app.diagrams.net" modified="2023-08-25T08:18:35.425Z" agent="Mozilla/5.0 (X11; Linux x86_64) AppleWebKit/537.36 (KHTML, like Gecko) Chrome/116.0.0.0 Safari/537.36" etag="fW-nMyjXxPF6UbOdDM62" version="21.6.9" type="device">
  <diagram name="Page-1" id="oHODI93cjKFoQ3NBfq4z">
    <mxGraphModel dx="627" dy="552" grid="1" gridSize="10" guides="1" tooltips="1" connect="1" arrows="1" fold="1" page="1" pageScale="1" pageWidth="827" pageHeight="1169" math="0" shadow="0">
      <root>
        <mxCell id="0" />
        <mxCell id="1" parent="0" />
        <mxCell id="w-7F0FZNtJtv4iwDKJQZ-1" value="" style="rounded=0;whiteSpace=wrap;html=1;fillColor=none;strokeWidth=4;perimeterSpacing=0;" parent="1" vertex="1">
          <mxGeometry x="38" y="38" width="164" height="164" as="geometry" />
        </mxCell>
        <mxCell id="w-7F0FZNtJtv4iwDKJQZ-2" value="" style="labelPosition=center;verticalLabelPosition=middle;align=center;html=1;shape=mxgraph.basic.shaded_button;dx=3;fillColor=#0000ff;strokeColor=none;whiteSpace=wrap;" parent="1" vertex="1">
          <mxGeometry x="40" y="180" width="20" height="20" as="geometry" />
        </mxCell>
        <mxCell id="w-7F0FZNtJtv4iwDKJQZ-3" value="" style="labelPosition=center;verticalLabelPosition=middle;align=center;html=1;shape=mxgraph.basic.shaded_button;dx=3;fillColor=#c000c0;strokeColor=none;whiteSpace=wrap;" parent="1" vertex="1">
          <mxGeometry x="60" y="180" width="20" height="20" as="geometry" />
        </mxCell>
        <mxCell id="w-7F0FZNtJtv4iwDKJQZ-4" value="" style="labelPosition=center;verticalLabelPosition=middle;align=center;html=1;shape=mxgraph.basic.shaded_button;dx=3;fillColor=#0000ff;strokeColor=none;whiteSpace=wrap;" parent="1" vertex="1">
          <mxGeometry x="100" y="180" width="20" height="20" as="geometry" />
        </mxCell>
        <mxCell id="w-7F0FZNtJtv4iwDKJQZ-5" value="" style="labelPosition=center;verticalLabelPosition=middle;align=center;html=1;shape=mxgraph.basic.shaded_button;dx=3;fillColor=#0000ff;strokeColor=none;whiteSpace=wrap;" parent="1" vertex="1">
          <mxGeometry x="120" y="180" width="20" height="20" as="geometry" />
        </mxCell>
        <mxCell id="w-7F0FZNtJtv4iwDKJQZ-6" value="" style="labelPosition=center;verticalLabelPosition=middle;align=center;html=1;shape=mxgraph.basic.shaded_button;dx=3;fillColor=#0000ff;strokeColor=none;whiteSpace=wrap;" parent="1" vertex="1">
          <mxGeometry x="140" y="180" width="20" height="20" as="geometry" />
        </mxCell>
        <mxCell id="w-7F0FZNtJtv4iwDKJQZ-7" value="" style="labelPosition=center;verticalLabelPosition=middle;align=center;html=1;shape=mxgraph.basic.shaded_button;dx=3;fillColor=#0000ff;strokeColor=none;whiteSpace=wrap;" parent="1" vertex="1">
          <mxGeometry x="160" y="180" width="20" height="20" as="geometry" />
        </mxCell>
        <mxCell id="w-7F0FZNtJtv4iwDKJQZ-8" value="" style="labelPosition=center;verticalLabelPosition=middle;align=center;html=1;shape=mxgraph.basic.shaded_button;dx=3;fillColor=#00C000;strokeColor=none;whiteSpace=wrap;" parent="1" vertex="1">
          <mxGeometry x="180" y="180" width="20" height="20" as="geometry" />
        </mxCell>
        <mxCell id="w-7F0FZNtJtv4iwDKJQZ-9" value="" style="labelPosition=center;verticalLabelPosition=middle;align=center;html=1;shape=mxgraph.basic.shaded_button;dx=3;fillColor=#FF0000;strokeColor=none;whiteSpace=wrap;" parent="1" vertex="1">
          <mxGeometry x="40" y="160" width="20" height="20" as="geometry" />
        </mxCell>
        <mxCell id="w-7F0FZNtJtv4iwDKJQZ-10" value="" style="labelPosition=center;verticalLabelPosition=middle;align=center;html=1;shape=mxgraph.basic.shaded_button;dx=3;fillColor=#0000ff;strokeColor=none;whiteSpace=wrap;" parent="1" vertex="1">
          <mxGeometry x="60" y="160" width="20" height="20" as="geometry" />
        </mxCell>
        <mxCell id="w-7F0FZNtJtv4iwDKJQZ-11" value="" style="labelPosition=center;verticalLabelPosition=middle;align=center;html=1;shape=mxgraph.basic.shaded_button;dx=3;fillColor=#c000c0;strokeColor=none;whiteSpace=wrap;" parent="1" vertex="1">
          <mxGeometry x="100" y="160" width="20" height="20" as="geometry" />
        </mxCell>
        <mxCell id="w-7F0FZNtJtv4iwDKJQZ-12" value="" style="labelPosition=center;verticalLabelPosition=middle;align=center;html=1;shape=mxgraph.basic.shaded_button;dx=3;fillColor=#FF0000;strokeColor=none;whiteSpace=wrap;" parent="1" vertex="1">
          <mxGeometry x="120" y="160" width="20" height="20" as="geometry" />
        </mxCell>
        <mxCell id="w-7F0FZNtJtv4iwDKJQZ-13" value="" style="labelPosition=center;verticalLabelPosition=middle;align=center;html=1;shape=mxgraph.basic.shaded_button;dx=3;fillColor=#FF0000;strokeColor=none;whiteSpace=wrap;" parent="1" vertex="1">
          <mxGeometry x="140" y="160" width="20" height="20" as="geometry" />
        </mxCell>
        <mxCell id="w-7F0FZNtJtv4iwDKJQZ-14" value="" style="labelPosition=center;verticalLabelPosition=middle;align=center;html=1;shape=mxgraph.basic.shaded_button;dx=3;fillColor=#00C000;strokeColor=none;whiteSpace=wrap;" parent="1" vertex="1">
          <mxGeometry x="160" y="160" width="20" height="20" as="geometry" />
        </mxCell>
        <mxCell id="w-7F0FZNtJtv4iwDKJQZ-15" value="" style="labelPosition=center;verticalLabelPosition=middle;align=center;html=1;shape=mxgraph.basic.shaded_button;dx=3;fillColor=#00C000;strokeColor=none;whiteSpace=wrap;" parent="1" vertex="1">
          <mxGeometry x="180" y="160" width="20" height="20" as="geometry" />
        </mxCell>
        <mxCell id="w-7F0FZNtJtv4iwDKJQZ-16" value="" style="labelPosition=center;verticalLabelPosition=middle;align=center;html=1;shape=mxgraph.basic.shaded_button;dx=3;fillColor=#FF0000;strokeColor=none;whiteSpace=wrap;" parent="1" vertex="1">
          <mxGeometry x="40" y="140" width="20" height="20" as="geometry" />
        </mxCell>
        <mxCell id="w-7F0FZNtJtv4iwDKJQZ-17" value="" style="labelPosition=center;verticalLabelPosition=middle;align=center;html=1;shape=mxgraph.basic.shaded_button;dx=3;fillColor=#FF0000;strokeColor=none;whiteSpace=wrap;" parent="1" vertex="1">
          <mxGeometry x="60" y="140" width="20" height="20" as="geometry" />
        </mxCell>
        <mxCell id="w-7F0FZNtJtv4iwDKJQZ-19" value="" style="labelPosition=center;verticalLabelPosition=middle;align=center;html=1;shape=mxgraph.basic.shaded_button;dx=3;fillColor=#c000c0;strokeColor=none;whiteSpace=wrap;" parent="1" vertex="1">
          <mxGeometry x="120" y="140" width="20" height="20" as="geometry" />
        </mxCell>
        <mxCell id="w-7F0FZNtJtv4iwDKJQZ-20" value="" style="labelPosition=center;verticalLabelPosition=middle;align=center;html=1;shape=mxgraph.basic.shaded_button;dx=3;fillColor=#FF0000;strokeColor=none;whiteSpace=wrap;" parent="1" vertex="1">
          <mxGeometry x="140" y="140" width="20" height="20" as="geometry" />
        </mxCell>
        <mxCell id="w-7F0FZNtJtv4iwDKJQZ-21" value="" style="labelPosition=center;verticalLabelPosition=middle;align=center;html=1;shape=mxgraph.basic.shaded_button;dx=3;fillColor=#FF0000;strokeColor=none;whiteSpace=wrap;" parent="1" vertex="1">
          <mxGeometry x="160" y="140" width="20" height="20" as="geometry" />
        </mxCell>
        <mxCell id="w-7F0FZNtJtv4iwDKJQZ-22" value="" style="labelPosition=center;verticalLabelPosition=middle;align=center;html=1;shape=mxgraph.basic.shaded_button;dx=3;fillColor=#00C000;strokeColor=none;whiteSpace=wrap;" parent="1" vertex="1">
          <mxGeometry x="180" y="140" width="20" height="20" as="geometry" />
        </mxCell>
        <mxCell id="w-7F0FZNtJtv4iwDKJQZ-23" value="" style="labelPosition=center;verticalLabelPosition=middle;align=center;html=1;shape=mxgraph.basic.shaded_button;dx=3;fillColor=#ffff80;strokeColor=none;whiteSpace=wrap;" parent="1" vertex="1">
          <mxGeometry x="100" y="60" width="20" height="20" as="geometry" />
        </mxCell>
        <mxCell id="w-7F0FZNtJtv4iwDKJQZ-24" value="" style="labelPosition=center;verticalLabelPosition=middle;align=center;html=1;shape=mxgraph.basic.shaded_button;dx=3;fillColor=#ffff80;strokeColor=none;whiteSpace=wrap;" parent="1" vertex="1">
          <mxGeometry x="120" y="60" width="20" height="20" as="geometry" />
        </mxCell>
        <mxCell id="w-7F0FZNtJtv4iwDKJQZ-25" value="" style="labelPosition=center;verticalLabelPosition=middle;align=center;html=1;shape=mxgraph.basic.shaded_button;dx=3;fillColor=#ffff80;strokeColor=none;whiteSpace=wrap;" parent="1" vertex="1">
          <mxGeometry x="140" y="60" width="20" height="20" as="geometry" />
        </mxCell>
        <mxCell id="w-7F0FZNtJtv4iwDKJQZ-26" value="" style="labelPosition=center;verticalLabelPosition=middle;align=center;html=1;shape=mxgraph.basic.shaded_button;dx=3;fillColor=#ffff80;strokeColor=none;whiteSpace=wrap;" parent="1" vertex="1">
          <mxGeometry x="100" y="40" width="20" height="20" as="geometry" />
        </mxCell>
        <mxCell id="w-7F0FZNtJtv4iwDKJQZ-27" value="" style="rounded=0;whiteSpace=wrap;html=1;fillColor=none;strokeWidth=4;perimeterSpacing=0;" parent="1" vertex="1">
          <mxGeometry x="238" y="38" width="164" height="164" as="geometry" />
        </mxCell>
        <mxCell id="w-7F0FZNtJtv4iwDKJQZ-28" value="" style="labelPosition=center;verticalLabelPosition=middle;align=center;html=1;shape=mxgraph.basic.shaded_button;dx=3;fillColor=#0000ff;strokeColor=none;whiteSpace=wrap;" parent="1" vertex="1">
          <mxGeometry x="240" y="180" width="20" height="20" as="geometry" />
        </mxCell>
        <mxCell id="w-7F0FZNtJtv4iwDKJQZ-29" value="" style="labelPosition=center;verticalLabelPosition=middle;align=center;html=1;shape=mxgraph.basic.shaded_button;dx=3;fillColor=#c000c0;strokeColor=none;whiteSpace=wrap;" parent="1" vertex="1">
          <mxGeometry x="260" y="180" width="20" height="20" as="geometry" />
        </mxCell>
        <mxCell id="w-7F0FZNtJtv4iwDKJQZ-30" value="" style="labelPosition=center;verticalLabelPosition=middle;align=center;html=1;shape=mxgraph.basic.shaded_button;dx=3;fillColor=#0000ff;strokeColor=none;whiteSpace=wrap;" parent="1" vertex="1">
          <mxGeometry x="300" y="180" width="20" height="20" as="geometry" />
        </mxCell>
        <mxCell id="w-7F0FZNtJtv4iwDKJQZ-31" value="" style="labelPosition=center;verticalLabelPosition=middle;align=center;html=1;shape=mxgraph.basic.shaded_button;dx=3;fillColor=#0000ff;strokeColor=none;whiteSpace=wrap;" parent="1" vertex="1">
          <mxGeometry x="320" y="180" width="20" height="20" as="geometry" />
        </mxCell>
        <mxCell id="w-7F0FZNtJtv4iwDKJQZ-32" value="" style="labelPosition=center;verticalLabelPosition=middle;align=center;html=1;shape=mxgraph.basic.shaded_button;dx=3;fillColor=#0000ff;strokeColor=none;whiteSpace=wrap;" parent="1" vertex="1">
          <mxGeometry x="340" y="180" width="20" height="20" as="geometry" />
        </mxCell>
        <mxCell id="w-7F0FZNtJtv4iwDKJQZ-33" value="" style="labelPosition=center;verticalLabelPosition=middle;align=center;html=1;shape=mxgraph.basic.shaded_button;dx=3;fillColor=#0000ff;strokeColor=none;whiteSpace=wrap;" parent="1" vertex="1">
          <mxGeometry x="360" y="180" width="20" height="20" as="geometry" />
        </mxCell>
        <mxCell id="w-7F0FZNtJtv4iwDKJQZ-34" value="" style="labelPosition=center;verticalLabelPosition=middle;align=center;html=1;shape=mxgraph.basic.shaded_button;dx=3;fillColor=#00C000;strokeColor=none;whiteSpace=wrap;" parent="1" vertex="1">
          <mxGeometry x="380" y="180" width="20" height="20" as="geometry" />
        </mxCell>
        <mxCell id="w-7F0FZNtJtv4iwDKJQZ-35" value="" style="labelPosition=center;verticalLabelPosition=middle;align=center;html=1;shape=mxgraph.basic.shaded_button;dx=3;fillColor=#FF0000;strokeColor=none;whiteSpace=wrap;" parent="1" vertex="1">
          <mxGeometry x="240" y="160" width="20" height="20" as="geometry" />
        </mxCell>
        <mxCell id="w-7F0FZNtJtv4iwDKJQZ-36" value="" style="labelPosition=center;verticalLabelPosition=middle;align=center;html=1;shape=mxgraph.basic.shaded_button;dx=3;fillColor=#0000ff;strokeColor=none;whiteSpace=wrap;" parent="1" vertex="1">
          <mxGeometry x="260" y="160" width="20" height="20" as="geometry" />
        </mxCell>
        <mxCell id="w-7F0FZNtJtv4iwDKJQZ-37" value="" style="labelPosition=center;verticalLabelPosition=middle;align=center;html=1;shape=mxgraph.basic.shaded_button;dx=3;fillColor=#c000c0;strokeColor=none;whiteSpace=wrap;" parent="1" vertex="1">
          <mxGeometry x="300" y="160" width="20" height="20" as="geometry" />
        </mxCell>
        <mxCell id="w-7F0FZNtJtv4iwDKJQZ-38" value="" style="labelPosition=center;verticalLabelPosition=middle;align=center;html=1;shape=mxgraph.basic.shaded_button;dx=3;fillColor=#FF0000;strokeColor=none;whiteSpace=wrap;" parent="1" vertex="1">
          <mxGeometry x="320" y="160" width="20" height="20" as="geometry" />
        </mxCell>
        <mxCell id="w-7F0FZNtJtv4iwDKJQZ-39" value="" style="labelPosition=center;verticalLabelPosition=middle;align=center;html=1;shape=mxgraph.basic.shaded_button;dx=3;fillColor=#FF0000;strokeColor=none;whiteSpace=wrap;" parent="1" vertex="1">
          <mxGeometry x="340" y="160" width="20" height="20" as="geometry" />
        </mxCell>
        <mxCell id="w-7F0FZNtJtv4iwDKJQZ-40" value="" style="labelPosition=center;verticalLabelPosition=middle;align=center;html=1;shape=mxgraph.basic.shaded_button;dx=3;fillColor=#00C000;strokeColor=none;whiteSpace=wrap;" parent="1" vertex="1">
          <mxGeometry x="360" y="160" width="20" height="20" as="geometry" />
        </mxCell>
        <mxCell id="w-7F0FZNtJtv4iwDKJQZ-41" value="" style="labelPosition=center;verticalLabelPosition=middle;align=center;html=1;shape=mxgraph.basic.shaded_button;dx=3;fillColor=#00C000;strokeColor=none;whiteSpace=wrap;" parent="1" vertex="1">
          <mxGeometry x="380" y="160" width="20" height="20" as="geometry" />
        </mxCell>
        <mxCell id="w-7F0FZNtJtv4iwDKJQZ-42" value="" style="labelPosition=center;verticalLabelPosition=middle;align=center;html=1;shape=mxgraph.basic.shaded_button;dx=3;fillColor=#FF0000;strokeColor=none;whiteSpace=wrap;" parent="1" vertex="1">
          <mxGeometry x="240" y="140" width="20" height="20" as="geometry" />
        </mxCell>
        <mxCell id="w-7F0FZNtJtv4iwDKJQZ-43" value="" style="labelPosition=center;verticalLabelPosition=middle;align=center;html=1;shape=mxgraph.basic.shaded_button;dx=3;fillColor=#FF0000;strokeColor=none;whiteSpace=wrap;" parent="1" vertex="1">
          <mxGeometry x="260" y="140" width="20" height="20" as="geometry" />
        </mxCell>
        <mxCell id="w-7F0FZNtJtv4iwDKJQZ-44" value="" style="labelPosition=center;verticalLabelPosition=middle;align=center;html=1;shape=mxgraph.basic.shaded_button;dx=3;fillColor=#c000c0;strokeColor=none;whiteSpace=wrap;" parent="1" vertex="1">
          <mxGeometry x="320" y="140" width="20" height="20" as="geometry" />
        </mxCell>
        <mxCell id="w-7F0FZNtJtv4iwDKJQZ-45" value="" style="labelPosition=center;verticalLabelPosition=middle;align=center;html=1;shape=mxgraph.basic.shaded_button;dx=3;fillColor=#FF0000;strokeColor=none;whiteSpace=wrap;" parent="1" vertex="1">
          <mxGeometry x="340" y="140" width="20" height="20" as="geometry" />
        </mxCell>
        <mxCell id="w-7F0FZNtJtv4iwDKJQZ-46" value="" style="labelPosition=center;verticalLabelPosition=middle;align=center;html=1;shape=mxgraph.basic.shaded_button;dx=3;fillColor=#FF0000;strokeColor=none;whiteSpace=wrap;" parent="1" vertex="1">
          <mxGeometry x="360" y="140" width="20" height="20" as="geometry" />
        </mxCell>
        <mxCell id="w-7F0FZNtJtv4iwDKJQZ-47" value="" style="labelPosition=center;verticalLabelPosition=middle;align=center;html=1;shape=mxgraph.basic.shaded_button;dx=3;fillColor=#00C000;strokeColor=none;whiteSpace=wrap;" parent="1" vertex="1">
          <mxGeometry x="380" y="140" width="20" height="20" as="geometry" />
        </mxCell>
        <mxCell id="w-7F0FZNtJtv4iwDKJQZ-48" value="" style="labelPosition=center;verticalLabelPosition=middle;align=center;html=1;shape=mxgraph.basic.shaded_button;dx=3;fillColor=#ffff80;strokeColor=none;whiteSpace=wrap;" parent="1" vertex="1">
          <mxGeometry x="300" y="60" width="20" height="20" as="geometry" />
        </mxCell>
        <mxCell id="w-7F0FZNtJtv4iwDKJQZ-49" value="" style="labelPosition=center;verticalLabelPosition=middle;align=center;html=1;shape=mxgraph.basic.shaded_button;dx=3;fillColor=#ffff80;strokeColor=none;whiteSpace=wrap;" parent="1" vertex="1">
          <mxGeometry x="280" y="80" width="20" height="20" as="geometry" />
        </mxCell>
        <mxCell id="w-7F0FZNtJtv4iwDKJQZ-50" value="" style="labelPosition=center;verticalLabelPosition=middle;align=center;html=1;shape=mxgraph.basic.shaded_button;dx=3;fillColor=#ffff80;strokeColor=none;whiteSpace=wrap;" parent="1" vertex="1">
          <mxGeometry x="280" y="100" width="20" height="20" as="geometry" />
        </mxCell>
        <mxCell id="w-7F0FZNtJtv4iwDKJQZ-51" value="" style="labelPosition=center;verticalLabelPosition=middle;align=center;html=1;shape=mxgraph.basic.shaded_button;dx=3;fillColor=#ffff80;strokeColor=none;whiteSpace=wrap;" parent="1" vertex="1">
          <mxGeometry x="280" y="60" width="20" height="20" as="geometry" />
        </mxCell>
        <mxCell id="w-7F0FZNtJtv4iwDKJQZ-52" value="" style="rounded=0;whiteSpace=wrap;html=1;fillColor=none;strokeWidth=4;perimeterSpacing=0;" parent="1" vertex="1">
          <mxGeometry x="438" y="38" width="164" height="164" as="geometry" />
        </mxCell>
        <mxCell id="w-7F0FZNtJtv4iwDKJQZ-53" value="" style="labelPosition=center;verticalLabelPosition=middle;align=center;html=1;shape=mxgraph.basic.shaded_button;dx=3;fillColor=#0000ff;strokeColor=none;whiteSpace=wrap;" parent="1" vertex="1">
          <mxGeometry x="440" y="180" width="20" height="20" as="geometry" />
        </mxCell>
        <mxCell id="w-7F0FZNtJtv4iwDKJQZ-54" value="" style="labelPosition=center;verticalLabelPosition=middle;align=center;html=1;shape=mxgraph.basic.shaded_button;dx=3;fillColor=#c000c0;strokeColor=none;whiteSpace=wrap;" parent="1" vertex="1">
          <mxGeometry x="460" y="180" width="20" height="20" as="geometry" />
        </mxCell>
        <mxCell id="w-7F0FZNtJtv4iwDKJQZ-55" value="" style="labelPosition=center;verticalLabelPosition=middle;align=center;html=1;shape=mxgraph.basic.shaded_button;dx=3;fillColor=#0000ff;strokeColor=none;whiteSpace=wrap;" parent="1" vertex="1">
          <mxGeometry x="500" y="180" width="20" height="20" as="geometry" />
        </mxCell>
        <mxCell id="w-7F0FZNtJtv4iwDKJQZ-56" value="" style="labelPosition=center;verticalLabelPosition=middle;align=center;html=1;shape=mxgraph.basic.shaded_button;dx=3;fillColor=#0000ff;strokeColor=none;whiteSpace=wrap;" parent="1" vertex="1">
          <mxGeometry x="520" y="180" width="20" height="20" as="geometry" />
        </mxCell>
        <mxCell id="w-7F0FZNtJtv4iwDKJQZ-57" value="" style="labelPosition=center;verticalLabelPosition=middle;align=center;html=1;shape=mxgraph.basic.shaded_button;dx=3;fillColor=#0000ff;strokeColor=none;whiteSpace=wrap;" parent="1" vertex="1">
          <mxGeometry x="540" y="180" width="20" height="20" as="geometry" />
        </mxCell>
        <mxCell id="w-7F0FZNtJtv4iwDKJQZ-58" value="" style="labelPosition=center;verticalLabelPosition=middle;align=center;html=1;shape=mxgraph.basic.shaded_button;dx=3;fillColor=#0000ff;strokeColor=none;whiteSpace=wrap;" parent="1" vertex="1">
          <mxGeometry x="560" y="180" width="20" height="20" as="geometry" />
        </mxCell>
        <mxCell id="w-7F0FZNtJtv4iwDKJQZ-59" value="" style="labelPosition=center;verticalLabelPosition=middle;align=center;html=1;shape=mxgraph.basic.shaded_button;dx=3;fillColor=#00C000;strokeColor=none;whiteSpace=wrap;" parent="1" vertex="1">
          <mxGeometry x="580" y="180" width="20" height="20" as="geometry" />
        </mxCell>
        <mxCell id="w-7F0FZNtJtv4iwDKJQZ-60" value="" style="labelPosition=center;verticalLabelPosition=middle;align=center;html=1;shape=mxgraph.basic.shaded_button;dx=3;fillColor=#FF0000;strokeColor=none;whiteSpace=wrap;" parent="1" vertex="1">
          <mxGeometry x="440" y="160" width="20" height="20" as="geometry" />
        </mxCell>
        <mxCell id="w-7F0FZNtJtv4iwDKJQZ-61" value="" style="labelPosition=center;verticalLabelPosition=middle;align=center;html=1;shape=mxgraph.basic.shaded_button;dx=3;fillColor=#0000ff;strokeColor=none;whiteSpace=wrap;" parent="1" vertex="1">
          <mxGeometry x="460" y="160" width="20" height="20" as="geometry" />
        </mxCell>
        <mxCell id="w-7F0FZNtJtv4iwDKJQZ-62" value="" style="labelPosition=center;verticalLabelPosition=middle;align=center;html=1;shape=mxgraph.basic.shaded_button;dx=3;fillColor=#c000c0;strokeColor=none;whiteSpace=wrap;" parent="1" vertex="1">
          <mxGeometry x="500" y="160" width="20" height="20" as="geometry" />
        </mxCell>
        <mxCell id="w-7F0FZNtJtv4iwDKJQZ-63" value="" style="labelPosition=center;verticalLabelPosition=middle;align=center;html=1;shape=mxgraph.basic.shaded_button;dx=3;fillColor=#FF0000;strokeColor=none;whiteSpace=wrap;" parent="1" vertex="1">
          <mxGeometry x="520" y="160" width="20" height="20" as="geometry" />
        </mxCell>
        <mxCell id="w-7F0FZNtJtv4iwDKJQZ-64" value="" style="labelPosition=center;verticalLabelPosition=middle;align=center;html=1;shape=mxgraph.basic.shaded_button;dx=3;fillColor=#FF0000;strokeColor=none;whiteSpace=wrap;" parent="1" vertex="1">
          <mxGeometry x="540" y="160" width="20" height="20" as="geometry" />
        </mxCell>
        <mxCell id="w-7F0FZNtJtv4iwDKJQZ-65" value="" style="labelPosition=center;verticalLabelPosition=middle;align=center;html=1;shape=mxgraph.basic.shaded_button;dx=3;fillColor=#00C000;strokeColor=none;whiteSpace=wrap;" parent="1" vertex="1">
          <mxGeometry x="560" y="160" width="20" height="20" as="geometry" />
        </mxCell>
        <mxCell id="w-7F0FZNtJtv4iwDKJQZ-66" value="" style="labelPosition=center;verticalLabelPosition=middle;align=center;html=1;shape=mxgraph.basic.shaded_button;dx=3;fillColor=#00C000;strokeColor=none;whiteSpace=wrap;" parent="1" vertex="1">
          <mxGeometry x="580" y="160" width="20" height="20" as="geometry" />
        </mxCell>
        <mxCell id="w-7F0FZNtJtv4iwDKJQZ-67" value="" style="labelPosition=center;verticalLabelPosition=middle;align=center;html=1;shape=mxgraph.basic.shaded_button;dx=3;fillColor=#FF0000;strokeColor=none;whiteSpace=wrap;" parent="1" vertex="1">
          <mxGeometry x="440" y="140" width="20" height="20" as="geometry" />
        </mxCell>
        <mxCell id="w-7F0FZNtJtv4iwDKJQZ-68" value="" style="labelPosition=center;verticalLabelPosition=middle;align=center;html=1;shape=mxgraph.basic.shaded_button;dx=3;fillColor=#FF0000;strokeColor=none;whiteSpace=wrap;" parent="1" vertex="1">
          <mxGeometry x="460" y="140" width="20" height="20" as="geometry" />
        </mxCell>
        <mxCell id="w-7F0FZNtJtv4iwDKJQZ-69" value="" style="labelPosition=center;verticalLabelPosition=middle;align=center;html=1;shape=mxgraph.basic.shaded_button;dx=3;fillColor=#c000c0;strokeColor=none;whiteSpace=wrap;" parent="1" vertex="1">
          <mxGeometry x="520" y="140" width="20" height="20" as="geometry" />
        </mxCell>
        <mxCell id="w-7F0FZNtJtv4iwDKJQZ-70" value="" style="labelPosition=center;verticalLabelPosition=middle;align=center;html=1;shape=mxgraph.basic.shaded_button;dx=3;fillColor=#FF0000;strokeColor=none;whiteSpace=wrap;" parent="1" vertex="1">
          <mxGeometry x="540" y="140" width="20" height="20" as="geometry" />
        </mxCell>
        <mxCell id="w-7F0FZNtJtv4iwDKJQZ-71" value="" style="labelPosition=center;verticalLabelPosition=middle;align=center;html=1;shape=mxgraph.basic.shaded_button;dx=3;fillColor=#FF0000;strokeColor=none;whiteSpace=wrap;" parent="1" vertex="1">
          <mxGeometry x="560" y="140" width="20" height="20" as="geometry" />
        </mxCell>
        <mxCell id="w-7F0FZNtJtv4iwDKJQZ-72" value="" style="labelPosition=center;verticalLabelPosition=middle;align=center;html=1;shape=mxgraph.basic.shaded_button;dx=3;fillColor=#00C000;strokeColor=none;whiteSpace=wrap;" parent="1" vertex="1">
          <mxGeometry x="580" y="140" width="20" height="20" as="geometry" />
        </mxCell>
        <mxCell id="w-7F0FZNtJtv4iwDKJQZ-73" value="" style="labelPosition=center;verticalLabelPosition=middle;align=center;html=1;shape=mxgraph.basic.shaded_button;dx=3;fillColor=#ffff80;strokeColor=none;whiteSpace=wrap;" parent="1" vertex="1">
          <mxGeometry x="500" y="140" width="20" height="20" as="geometry" />
        </mxCell>
        <mxCell id="w-7F0FZNtJtv4iwDKJQZ-74" value="" style="labelPosition=center;verticalLabelPosition=middle;align=center;html=1;shape=mxgraph.basic.shaded_button;dx=3;fillColor=#ffff80;strokeColor=none;whiteSpace=wrap;" parent="1" vertex="1">
          <mxGeometry x="480" y="160" width="20" height="20" as="geometry" />
        </mxCell>
        <mxCell id="w-7F0FZNtJtv4iwDKJQZ-75" value="" style="labelPosition=center;verticalLabelPosition=middle;align=center;html=1;shape=mxgraph.basic.shaded_button;dx=3;fillColor=#ffff80;strokeColor=none;whiteSpace=wrap;" parent="1" vertex="1">
          <mxGeometry x="480" y="180" width="20" height="20" as="geometry" />
        </mxCell>
        <mxCell id="w-7F0FZNtJtv4iwDKJQZ-76" value="" style="labelPosition=center;verticalLabelPosition=middle;align=center;html=1;shape=mxgraph.basic.shaded_button;dx=3;fillColor=#ffff80;strokeColor=none;whiteSpace=wrap;" parent="1" vertex="1">
          <mxGeometry x="480" y="140" width="20" height="20" as="geometry" />
        </mxCell>
      </root>
    </mxGraphModel>
  </diagram>
</mxfile>
